<?xml version="1.0" encoding="UTF-8"?>
<svg width="600px" height="600px" viewBox="0 0 600 600 " version="1.1" xmlns="http://www.w3.org/2000/svg" xmlns:xlink="http://www.w3.org/1999/xlink">
    <title>Group 3</title>
    <g id="Page-1" stroke="none" stroke-width="1" fill="none" fill-rule="evenodd">
        <g id="Artboard" transform="translate(-285, -891)">
            <g id="Group-3" transform="translate(359.808, 891.2775)">
               
                <g id="Group-2" transform="translate(-0, 0)">
                    <polygon id="Path" fill="#01A0E8" points="317.033351 0 -1.24156666e-14 341.686434 169.232239 341.686434 181.377409 260.230744 285.378557 226.349427"></polygon>
                    <g id="Group" transform="translate(131.5177, 260.2307)" fill="#ffffff">
                        <path d="M48.859734,0 L0,341.690848 L96.5116953,236.680533 L96.5116953,150.388992 C94.7003654,128.98956 92.8507871,112.577384 90.9629604,101.152462 C89.0751337,89.7275406 85.3631943,72.4820176 79.8271421,49.415893 L96.5116953,37.3361113 L126.951565,32.5056735 L157.053327,37.3361113 L173.606956,49.415893 C168.986094,70.5393003 165.72352,86.8497096 163.819236,98.347121 C161.914952,109.844532 159.659649,126.849156 157.053327,149.360991 L157.053327,171.845424 L317.925686,0 L48.859734,0 Z" id="Path-2"></path>
                        <path d="M148.484406,181.679891 L143.571567,187.121918 C144.071815,151.194643 144.593734,127.337973 145.137323,115.551909 C146.065434,95.4286615 148.484406,83.2212753 148.484406,79.2391748 C148.484406,71.758636 150.147774,57.5823491 153.47451,36.7103143 L158.962843,36.7103143 C154.550357,72.1186206 151.724212,98.3991521 150.484406,115.551909 C149.244601,132.704665 148.577934,154.747326 148.484406,181.679891 Z" id="Path-3"></path>
                        <path d="M100.484406,227.41223 L95.5715669,221.854256 C96.071815,162.772089 96.5937336,127.337973 97.1373227,115.551909 C98.0654338,95.4286615 100.484406,83.2212753 100.484406,79.2391748 C100.484406,71.758636 102.147774,57.5823491 105.47451,36.7103143 L110.962843,36.7103143 C106.550357,72.1186206 103.724212,98.3991521 102.484406,115.551909 C101.244601,132.704665 100.577934,169.991439 100.484406,227.41223 Z" id="Path-3" transform="translate(103.2672, 132.0613) scale(-1, 1) translate(-103.2672, -132.0613)"></path>
                        <polyline id="Path-4" points="123.93333 206.929261 129.44679 202.092228 129.44679 31.4098194 123.93333 31.4098194"></polyline>
                        <polygon id="Path-5" points="157.049717 151.307234 143.913561 150.307234 126.881968 149.307234 107.178361 150.307234 95.5715669 151.307234 95.5715669 145.595427 107.178361 144.595427 127.08887 143.595427 144.302605 144.595427 158.049717 145.595427"></polygon>
                        <polygon id="Path-5" points="161.049717 122.307234 143.913561 118.307234 126.881968 117.307234 107.178361 118.307234 92.5715669 123.307234 92.5715669 117.595427 107.178361 112.595427 127.08887 111.595427 144.302605 112.595427 161.049717 116.595427"></polygon>
                        <polygon id="Path-5" points="165.871865 91.689779 148.913561 82.3072343 126.881968 81.3072343 103.178361 82.3072343 88.5715669 91.3072343 87.5715669 85.5954272 103.178361 76.5954272 127.08887 75.5954272 149.302605 76.5954272 166.850432 85.5954272"></polygon>
                    </g>
                </g>
            </g>
        </g>
    </g>
</svg>